<svg width="155" height="40" viewBox="0 0 155 40" fill="none" xmlns="http://www.w3.org/2000/svg">
<path d="M18.4525 0C8.26376 0 0.0442585 8.25027 0.000177827 18.5233C-0.0357018 26.8552 5.36161 33.921 12.8246 36.3283C16.3315 37.4591 20.1717 35.8611 21.7412 32.5029C22.2353 31.4465 22.511 30.2672 22.511 29.0248V28.6713C22.511 28.3488 22.1943 28.1256 21.8939 28.2341C20.757 28.6475 19.5269 28.8625 18.2424 28.8367C12.7036 28.724 8.24633 24.0852 8.30272 18.5006C8.36115 12.8963 12.883 8.37224 18.4525 8.37224C24.058 8.37224 28.6013 12.9532 28.6013 18.605V29.0238C28.6013 31.1199 28.1523 33.1127 27.3466 34.9091C33.0443 31.7422 36.9049 25.6284 36.9049 18.605C36.9049 8.32986 28.6434 0 18.4525 0ZM51.6668 8.37224C46.0163 8.37224 41.4452 13.0276 41.519 18.7414C41.5887 24.1131 45.8307 28.5586 51.1522 28.8243C52.3013 28.8811 53.4105 28.7457 54.4521 28.447C54.8303 28.3385 55.1645 28.723 55.0015 29.0837C53.8329 31.6739 51.3654 33.5479 48.4417 33.8497C47.9691 33.8983 47.6083 34.2962 47.6083 34.7748V39.0704C47.6083 39.6131 48.0665 40.0358 48.6037 39.9976C55.9754 39.4808 61.8166 33.2688 61.8166 25.7069V18.605C61.8156 12.9532 57.2722 8.37224 51.6668 8.37224ZM51.6668 23.0237C49.2465 23.0237 47.2844 21.0453 47.2844 18.605C47.2844 16.1646 49.2465 14.1863 51.6668 14.1863C54.0871 14.1863 56.0492 16.1646 56.0492 18.605C56.0492 21.0453 54.0871 23.0237 51.6668 23.0237ZM77.1136 9.43893C72.5046 7.58256 66.4656 9.60017 64.6029 14.4385C62.5434 19.2696 64.6798 25.7255 69.8936 27.3121C73.8434 28.6899 78.8358 27.8682 81.4458 24.5472C81.7882 24.111 81.6867 23.4733 81.2203 23.1756L78.0947 21.1849C77.7123 20.942 77.2161 21.0174 76.9127 21.3544C75.2704 23.1735 72.0618 23.1022 70.5641 21.1187C70.3314 20.8107 70.5446 20.3673 70.928 20.3673H81.5658C82.0752 20.3673 82.4884 19.9507 82.4884 19.437V18.5595C82.5407 14.6328 80.7579 10.8942 77.1136 9.43893ZM75.8055 15.9279H70.8521C70.4892 15.9279 70.2657 15.5228 70.4615 15.2147C71.7788 13.1392 75.4201 12.8963 76.2443 15.316C76.3458 15.6158 76.1203 15.9279 75.8055 15.9279ZM96.0919 8.83736C95.2564 8.83736 93.0657 9.01204 91.569 10.6069V10.2493C91.569 9.73557 91.1559 9.31903 90.6464 9.31903H85.9707C85.4613 9.31903 85.0481 9.73557 85.0481 10.2493V26.4604C85.0481 26.9741 85.4613 27.3907 85.9707 27.3907H90.6464C91.1559 27.3907 91.569 26.9741 91.569 26.4604V17.6665C91.569 15.9548 92.4701 14.4488 94.1113 14.4488C95.7525 14.4488 96.1759 16.3279 96.1759 17.6323V26.4604C96.1759 26.9741 96.5891 27.3907 97.0985 27.3907H101.808C102.317 27.3907 102.731 26.9741 102.731 26.4604V16.3248C102.733 9.07716 96.9284 8.83736 96.0919 8.83736ZM122.843 9.31903H118.167C117.658 9.31903 117.244 9.73557 117.244 10.2493V19.0432C117.244 20.7549 116.343 22.2609 114.702 22.2609C113.061 22.2609 112.637 20.3818 112.637 19.0773V10.2493C112.637 9.73557 112.224 9.31903 111.715 9.31903H107.005C106.496 9.31903 106.083 9.73557 106.083 10.2493V20.3849C106.083 27.6315 111.887 27.8713 112.723 27.8713C113.558 27.8713 115.749 27.6966 117.245 26.1017V26.4604C117.245 26.9741 117.659 27.3907 118.168 27.3907H122.844C123.353 27.3907 123.766 26.9741 123.766 26.4604V10.2493C123.765 9.73557 123.352 9.31903 122.843 9.31903ZM148.36 8.83736C147.525 8.83736 145.334 9.01204 143.837 10.6069V10.2493C143.837 9.73557 143.424 9.31903 142.915 9.31903H138.239C137.73 9.31903 137.316 9.73557 137.316 10.2493V26.4604C137.316 26.9741 137.73 27.3907 138.239 27.3907H142.915C143.424 27.3907 143.837 26.9741 143.837 26.4604V17.6665C143.837 15.9548 144.738 14.4488 146.38 14.4488C148.021 14.4488 148.444 16.3279 148.444 17.6323V26.4604C148.444 26.9741 148.857 27.3907 149.367 27.3907H154.077C154.587 27.3907 155 26.9741 155 26.4604V16.3248C155 9.07716 149.196 8.83736 148.36 8.83736ZM132.879 9.31903H128.203C127.694 9.31903 127.28 9.73557 127.28 10.2493V26.4604C127.28 26.9741 127.694 27.3907 128.203 27.3907H132.879C133.388 27.3907 133.801 26.9741 133.801 26.4604V10.2493C133.801 9.73557 133.388 9.31903 132.879 9.31903ZM130.54 0C128.502 0 126.85 1.66618 126.85 3.721C126.85 5.77581 128.502 7.44199 130.54 7.44199C132.578 7.44199 134.231 5.77581 134.231 3.721C134.231 1.66618 132.579 0 130.54 0Z" fill="#0645FF"/>
</svg>
